# xmcd
#
# Track frame offsets:
#	182
#	10447
#	22160
#	35617
#	50230
#	63632
#	74092
#	85540
#	98382
#	115165
#	128952
#	141937
#	155537
#	168655
#	179200
#	192487
#
# Disc length: 2730
#
# Revision: 2
# Processed by: cddbd v1.5.1PL0 Copyright (c) Steve Scherf et al.
# Submitted via: CDex 1.51
# Normalized: r1:DSETVAR1,TSWAP
#
DISCID=f40aa810
DTITLE=Various Artist - country number ones vol. 2
DYEAR=1989
DGENRE=Country
TTITLE0=Jim Reaves - Is It Really Over
TTITLE1=Jack Green - There Goes My Everything
TTITLE2=David Houston - Almost Persuaded
TTITLE3=Jeannie C. Riley - Harper Valley PTA
TTITLE4=Tammy Wynette - D.I.V.O.R.S.E.
TTITLE5=Warner Mack - The Bridge Washed Out
TTITLE6=Don Gibson - Oh Lonesome Me
TTITLE7=Jonny Horton - North To Alaska
TTITLE8=Johnny Cash - A Boy Named Sue
TTITLE9=Charlie Pride - All I Have To Offer You Is Me
TTITLE10=Conway Twitty - Next In Line
TTITLE11=Loretta Lynn - Coal Miners Daughter
TTITLE12=Lynn Anderson - Rose Garden
TTITLE13=Jerry Reed - When You Are Hot..
TTITLE14=Faron Young - It´s Four In The Morning
TTITLE15=Tom T Hall - The Year Clayton Delany Died
EXTD=YEAR: 1989
EXTT0=
EXTT1=
EXTT2=
EXTT3=
EXTT4=
EXTT5=
EXTT6=
EXTT7=
EXTT8=
EXTT9=
EXTT10=
EXTT11=
EXTT12=
EXTT13=
EXTT14=
EXTT15=
PLAYORDER=
